<?xml version="1.0" encoding="utf-8"?>
<!-- Generator: Adobe Illustrator 23.0.1, SVG Export Plug-In . SVG Version: 6.00 Build 0)  -->
<svg version="1.1" id="Layer_1" xmlns="http://www.w3.org/2000/svg" xmlns:xlink="http://www.w3.org/1999/xlink" x="0px" y="0px"
	 viewBox="0 0 36 36" style="enable-background:new 0 0 36 36;" xml:space="preserve">
<style type="text/css">
	.st0{fill:#00843F;}
</style>
<g>
	<g>
		<g>
			<path class="st0" d="M35.6,14.6L18.6,2.1c-0.3-0.2-0.8-0.2-1.1,0L0.4,14.6c-0.4,0.3-0.5,0.9-0.2,1.3c0.3,0.4,0.9,0.5,1.3,0.2
				L18,4l16.5,12.1c0.2,0.1,0.4,0.2,0.6,0.2c0.3,0,0.6-0.1,0.8-0.4C36.1,15.5,36,14.9,35.6,14.6z"/>
		</g>
	</g>
	<g>
		<g>
			<path class="st0" d="M31.1,16.4c-0.5,0-0.9,0.4-0.9,0.9v14.9h-7.5V24c0-2.6-2.1-4.7-4.7-4.7s-4.7,2.1-4.7,4.7v8.1H5.8V17.3
				c0-0.5-0.4-0.9-0.9-0.9S4,16.8,4,17.3v15.8C4,33.6,4.4,34,4.9,34h9.4c0.5,0,0.9-0.4,0.9-0.9c0,0,0,0,0-0.1V24
				c0-1.5,1.3-2.8,2.8-2.8c1.5,0,2.8,1.3,2.8,2.8v9.1c0,0,0,0.1,0,0.1c0,0.5,0.4,0.9,0.9,0.9h9.4c0.5,0,0.9-0.4,0.9-0.9V17.3
				C32,16.8,31.6,16.4,31.1,16.4z"/>
		</g>
	</g>
</g>
</svg>
